<?xml version="1.0" encoding="UTF-8" standalone="no"?>
<!DOCTYPE svg PUBLIC "-//W3C//DTD SVG 1.1//EN" "http://www.w3.org/Graphics/SVG/1.1/DTD/svg11.dtd">
<svg width="100%" height="100%" viewBox="0 0 99 63" version="1.1" xmlns="http://www.w3.org/2000/svg" xmlns:xlink="http://www.w3.org/1999/xlink" xml:space="preserve" xmlns:serif="http://www.serif.com/" style="fill-rule:evenodd;clip-rule:evenodd;stroke-linecap:round;stroke-linejoin:round;stroke-miterlimit:1;">
    <g transform="matrix(1,0,0,1,-3323.9,-1641.18)">
        <g transform="matrix(1.06667,0,0,1,4492.38,1166.25)">
            <g id="rapids" transform="matrix(5.74053e-17,-1,0.9375,1.20437e-16,-1800.77,605.698)">
                <g transform="matrix(0.0871557,0.996195,-0.996195,0.0871557,2441.1,-209.587)">
                    <path d="M756.044,2444C756.044,2444 766.637,2437.55 776,2437.98C781.498,2438.23 791.4,2443.07 801.228,2444.93C811.051,2446.79 821.8,2440.67 827,2441C835.148,2441.52 846.412,2447 846.412,2447" style="fill:none;stroke:rgb(5,44,59);stroke-width:8.33px;"/>
                </g>
                <g transform="matrix(6.12323e-17,1,-1,6.12323e-17,2541.36,0.46205)">
                    <path d="M756.044,2444C756.044,2444 766.637,2437.55 776,2437.98C781.498,2438.23 791.4,2443.07 801.228,2444.93C811.051,2446.79 821.8,2440.67 827,2441C835.148,2441.52 846.412,2447 846.412,2447" style="fill:none;stroke:rgb(54,106,126);stroke-width:8.33px;"/>
                </g>
                <g transform="matrix(-0.0871557,0.996195,-0.996195,-0.0871557,2622.75,216.953)">
                    <path d="M756.044,2444C756.044,2444 766.637,2437.55 776,2437.98C781.498,2438.23 791.4,2443.07 801.228,2444.93C811.051,2446.79 821.8,2440.67 827,2441C835.148,2441.52 846.412,2447 846.412,2447" style="fill:none;stroke:rgb(5,44,59);stroke-width:8.33px;"/>
                </g>
            </g>
        </g>
    </g>
</svg>
